<mxfile host="app.diagrams.net" agent="Mozilla/5.0 (Windows NT 10.0; Win64; x64) AppleWebKit/537.36 (KHTML, like Gecko) Chrome/141.0.0.0 Safari/537.36" version="28.2.5">
  <diagram name="Page-1" id="53pU-h0qW9xyLv7lbl9M">
    <mxGraphModel dx="1489" dy="1989" grid="1" gridSize="10" guides="1" tooltips="1" connect="1" arrows="1" fold="1" page="1" pageScale="1" pageWidth="850" pageHeight="1100" math="0" shadow="0">
      <root>
        <mxCell id="0" />
        <mxCell id="1" parent="0" />
        <mxCell id="GywjnRKpf5ZB1UGZrmTv-3" style="edgeStyle=orthogonalEdgeStyle;rounded=0;orthogonalLoop=1;jettySize=auto;html=1;endArrow=ERzeroToMany;endFill=0;startArrow=ERone;startFill=0;" edge="1" parent="1" source="GywjnRKpf5ZB1UGZrmTv-1" target="GywjnRKpf5ZB1UGZrmTv-2">
          <mxGeometry relative="1" as="geometry" />
        </mxCell>
        <mxCell id="GywjnRKpf5ZB1UGZrmTv-1" value="Project" style="rounded=1;whiteSpace=wrap;html=1;" vertex="1" parent="1">
          <mxGeometry x="400" y="210" width="180" height="80" as="geometry" />
        </mxCell>
        <mxCell id="GywjnRKpf5ZB1UGZrmTv-5" style="edgeStyle=orthogonalEdgeStyle;rounded=0;orthogonalLoop=1;jettySize=auto;html=1;startArrow=ERzeroToMany;startFill=0;endArrow=ERone;endFill=0;" edge="1" parent="1" source="GywjnRKpf5ZB1UGZrmTv-2" target="GywjnRKpf5ZB1UGZrmTv-4">
          <mxGeometry relative="1" as="geometry" />
        </mxCell>
        <mxCell id="GywjnRKpf5ZB1UGZrmTv-2" value="Product" style="rounded=1;whiteSpace=wrap;html=1;" vertex="1" parent="1">
          <mxGeometry x="710" y="210" width="180" height="80" as="geometry" />
        </mxCell>
        <mxCell id="GywjnRKpf5ZB1UGZrmTv-4" value="ProductBacklog" style="rounded=1;whiteSpace=wrap;html=1;" vertex="1" parent="1">
          <mxGeometry x="1020" y="210" width="180" height="80" as="geometry" />
        </mxCell>
        <mxCell id="GywjnRKpf5ZB1UGZrmTv-17" style="edgeStyle=orthogonalEdgeStyle;rounded=0;orthogonalLoop=1;jettySize=auto;html=1;endArrow=none;endFill=0;" edge="1" parent="1">
          <mxGeometry relative="1" as="geometry">
            <mxPoint x="670.0044827586207" y="500" as="sourcePoint" />
            <mxPoint x="779.9837931034483" y="410" as="targetPoint" />
            <Array as="points">
              <mxPoint x="670" y="450" />
              <mxPoint x="780" y="450" />
            </Array>
          </mxGeometry>
        </mxCell>
        <mxCell id="GywjnRKpf5ZB1UGZrmTv-6" value="ServiceModel" style="rounded=1;whiteSpace=wrap;html=1;" vertex="1" parent="1">
          <mxGeometry x="590" y="500" width="180" height="80" as="geometry" />
        </mxCell>
        <mxCell id="GywjnRKpf5ZB1UGZrmTv-15" value="" style="group" vertex="1" connectable="0" parent="1">
          <mxGeometry x="760" y="350" width="80" height="60" as="geometry" />
        </mxCell>
        <mxCell id="GywjnRKpf5ZB1UGZrmTv-13" value="" style="shape=or;whiteSpace=wrap;html=1;rotation=-90;" vertex="1" parent="GywjnRKpf5ZB1UGZrmTv-15">
          <mxGeometry x="10" y="-10" width="60" height="80" as="geometry" />
        </mxCell>
        <mxCell id="GywjnRKpf5ZB1UGZrmTv-14" value="Extend" style="text;html=1;align=center;verticalAlign=middle;resizable=0;points=[];autosize=1;strokeColor=none;fillColor=none;" vertex="1" parent="GywjnRKpf5ZB1UGZrmTv-15">
          <mxGeometry x="10" y="15" width="60" height="30" as="geometry" />
        </mxCell>
        <mxCell id="GywjnRKpf5ZB1UGZrmTv-16" style="edgeStyle=orthogonalEdgeStyle;rounded=0;orthogonalLoop=1;jettySize=auto;html=1;endArrow=block;endFill=0;" edge="1" parent="1" source="GywjnRKpf5ZB1UGZrmTv-13" target="GywjnRKpf5ZB1UGZrmTv-2">
          <mxGeometry relative="1" as="geometry" />
        </mxCell>
        <mxCell id="GywjnRKpf5ZB1UGZrmTv-18" value="GoodModel" style="rounded=1;whiteSpace=wrap;html=1;" vertex="1" parent="1">
          <mxGeometry x="870" y="500" width="180" height="80" as="geometry" />
        </mxCell>
        <mxCell id="GywjnRKpf5ZB1UGZrmTv-19" style="edgeStyle=orthogonalEdgeStyle;rounded=0;orthogonalLoop=1;jettySize=auto;html=1;endArrow=none;endFill=0;" edge="1" parent="1" source="GywjnRKpf5ZB1UGZrmTv-18">
          <mxGeometry relative="1" as="geometry">
            <mxPoint x="990.0244827586207" y="500" as="sourcePoint" />
            <mxPoint x="820.0047710487445" y="410" as="targetPoint" />
            <Array as="points">
              <mxPoint x="950" y="450" />
              <mxPoint x="820" y="450" />
            </Array>
          </mxGeometry>
        </mxCell>
        <mxCell id="GywjnRKpf5ZB1UGZrmTv-21" style="edgeStyle=orthogonalEdgeStyle;rounded=0;orthogonalLoop=1;jettySize=auto;html=1;startArrow=ERzeroToMany;startFill=0;endArrow=ERone;endFill=0;" edge="1" parent="1" source="GywjnRKpf5ZB1UGZrmTv-20" target="GywjnRKpf5ZB1UGZrmTv-2">
          <mxGeometry relative="1" as="geometry" />
        </mxCell>
        <mxCell id="GywjnRKpf5ZB1UGZrmTv-20" value="Deployment" style="rounded=1;whiteSpace=wrap;html=1;" vertex="1" parent="1">
          <mxGeometry x="710" y="20" width="180" height="80" as="geometry" />
        </mxCell>
        <mxCell id="GywjnRKpf5ZB1UGZrmTv-22" value="Pipeline" style="rounded=1;whiteSpace=wrap;html=1;" vertex="1" parent="1">
          <mxGeometry x="400" y="-140" width="495" height="80" as="geometry" />
        </mxCell>
        <mxCell id="GywjnRKpf5ZB1UGZrmTv-24" style="edgeStyle=orthogonalEdgeStyle;rounded=0;orthogonalLoop=1;jettySize=auto;html=1;startArrow=ERzeroToMany;startFill=0;endArrow=ERone;endFill=0;" edge="1" parent="1" source="GywjnRKpf5ZB1UGZrmTv-23" target="GywjnRKpf5ZB1UGZrmTv-1">
          <mxGeometry relative="1" as="geometry" />
        </mxCell>
        <mxCell id="GywjnRKpf5ZB1UGZrmTv-25" style="edgeStyle=orthogonalEdgeStyle;rounded=0;orthogonalLoop=1;jettySize=auto;html=1;startArrow=ERzeroToMany;startFill=0;endArrow=ERzeroToOne;endFill=0;" edge="1" parent="1" source="GywjnRKpf5ZB1UGZrmTv-23" target="GywjnRKpf5ZB1UGZrmTv-22">
          <mxGeometry relative="1" as="geometry">
            <Array as="points">
              <mxPoint x="490" y="-50" />
              <mxPoint x="490" y="-50" />
            </Array>
          </mxGeometry>
        </mxCell>
        <mxCell id="GywjnRKpf5ZB1UGZrmTv-23" value="Build" style="rounded=1;whiteSpace=wrap;html=1;" vertex="1" parent="1">
          <mxGeometry x="400" y="20" width="180" height="80" as="geometry" />
        </mxCell>
        <mxCell id="GywjnRKpf5ZB1UGZrmTv-27" style="edgeStyle=orthogonalEdgeStyle;rounded=0;orthogonalLoop=1;jettySize=auto;html=1;startArrow=ERzeroToMany;startFill=0;endArrow=ERzeroToOne;endFill=0;" edge="1" parent="1" source="GywjnRKpf5ZB1UGZrmTv-20" target="GywjnRKpf5ZB1UGZrmTv-22">
          <mxGeometry relative="1" as="geometry">
            <mxPoint x="630" y="60" as="sourcePoint" />
            <mxPoint x="630" y="-20" as="targetPoint" />
            <Array as="points">
              <mxPoint x="800" y="-30" />
              <mxPoint x="800" y="-30" />
            </Array>
          </mxGeometry>
        </mxCell>
        <mxCell id="GywjnRKpf5ZB1UGZrmTv-28" value="Container" style="rounded=1;whiteSpace=wrap;html=1;" vertex="1" parent="1">
          <mxGeometry x="1020" y="20" width="180" height="80" as="geometry" />
        </mxCell>
        <mxCell id="GywjnRKpf5ZB1UGZrmTv-30" style="edgeStyle=orthogonalEdgeStyle;rounded=0;orthogonalLoop=1;jettySize=auto;html=1;startArrow=ERzeroToMany;startFill=0;endArrow=ERzeroToOne;endFill=0;" edge="1" parent="1" source="GywjnRKpf5ZB1UGZrmTv-20" target="GywjnRKpf5ZB1UGZrmTv-28">
          <mxGeometry relative="1" as="geometry">
            <mxPoint x="970" y="150" as="sourcePoint" />
            <mxPoint x="970" y="70" as="targetPoint" />
            <Array as="points" />
          </mxGeometry>
        </mxCell>
      </root>
    </mxGraphModel>
  </diagram>
</mxfile>
